<svg id="Capa_1" enable-background="new 0 0 512 512" height="512" viewBox="0 0 512 512" width="512" xmlns="http://www.w3.org/2000/svg"><path d="m76.804 282.694h2.042c6.253 0 11.322-5.069 11.322-11.322v-39.095c0-6.253-5.069-11.322-11.322-11.322h-2.042c-6.253 0-11.322 5.069-11.322 11.322v39.095c0 6.253 5.069 11.322 11.322 11.322z" fill="#a698a6"/><path d="m78.456 220.956h-1.262c-2.005 0-3.89.505-5.54 1.393 3.673 1.977 6.171 5.855 6.171 10.318v38.316c0 4.463-2.498 8.342-6.171 10.318 1.65.888 3.536 1.393 5.54 1.393h1.262c6.468 0 11.711-5.243 11.711-11.711v-38.316c0-6.468-5.243-11.711-11.711-11.711z" fill="#8f818f"/><path d="m58.788 250.831-45.626-20.481c-4.704-2.112-10.23-.01-12.341 4.694-2.112 4.704-.01 10.23 4.694 12.341l39.894 17.908c3.603 1.617 6.22 4.855 7.046 8.716l.86 4.02c.685 3.203 2.856 5.888 5.844 7.23l20.697 9.291 7.559-16.839c2.895-6.449.014-14.023-6.435-16.918z" fill="#695e66"/><path d="m80.98 260.793-1.081-.485c-.146 1.278-.485 2.555-1.04 3.791l-3.246 7.232c-2.382 5.306-8.614 7.676-13.92 5.294l-9.776-4.388c.217.575.407 1.163.538 1.774l.86 4.02c.685 3.203 2.856 5.888 5.844 7.23l20.697 9.291 7.559-16.839c2.896-6.451.015-14.026-6.435-16.92z" fill="#554e57"/><path d="m407.376 258.556h-250.01v-167.921c0-8.023 6.504-14.527 14.527-14.527h221.483c7.732 0 14 6.268 14 14z" fill="#eedfda"/><path d="m393.376 76.108h-39.993c8.747 0 15.837 7.091 15.837 15.837v166.611h38.156v-168.448c0-7.732-6.268-14-14-14z" fill="#ded0cb"/><path d="m486.753 282.694h2.042c6.253 0 11.322-5.069 11.322-11.322v-39.095c0-6.253-5.069-11.322-11.322-11.322h-2.042c-6.253 0-11.322 5.069-11.322 11.322v39.095c0 6.253 5.069 11.322 11.322 11.322z" fill="#a698a6"/><path d="m488.405 220.956h-1.262c-2.005 0-3.89.505-5.54 1.393 3.673 1.977 6.171 5.855 6.171 10.318v38.316c0 4.463-2.498 8.342-6.171 10.318 1.65.888 3.536 1.393 5.54 1.393h1.262c6.468 0 11.711-5.243 11.711-11.711v-38.316c0-6.468-5.243-11.711-11.711-11.711z" fill="#8f818f"/><path d="m509.752 343.167-41.345-102.732c-4.737-11.769-16.15-19.479-28.837-19.479h-68.313c-4.538 0-8.952 1.501-12.518 4.307-17.27 13.588-45.044 22.403-76.367 22.403s-59.097-8.815-76.368-22.403c-3.566-2.806-7.981-4.307-12.518-4.307h-68.313c-12.687 0-24.101 7.71-28.837 19.479l-41.346 102.731c-1.485 3.689-2.248 7.629-2.248 11.606v70.109c0 6.081 4.93 11.011 11.011 11.011h437.235c6.081 0 11.011-4.93 11.011-11.011v-70.109c.001-3.976-.762-7.916-2.247-11.605z" fill="#695e66"/><path d="m509.752 343.167-41.345-102.732c-4.737-11.769-16.15-19.479-28.837-19.479h-66.984c12.687 0 24.1 7.71 28.837 19.479l41.345 102.732c1.485 3.689 2.248 7.629 2.248 11.606v70.109c0 6.081-4.93 11.011-11.011 11.011h66.984c6.081 0 11.011-4.93 11.011-11.011v-70.109c0-3.977-.763-7.917-2.248-11.606z" fill="#554e57"/><g fill="#a698a6"><path d="m159.894 315.844h-22.98c-6.131 0-11.1-4.97-11.1-11.1v-2.002c0-6.131 4.97-11.1 11.1-11.1h22.98c6.131 0 11.1 4.97 11.1 11.1v2.002c0 6.13-4.97 11.1-11.1 11.1z"/><path d="m226.877 315.844h-22.98c-6.131 0-11.1-4.97-11.1-11.1v-2.002c0-6.131 4.97-11.1 11.1-11.1h22.98c6.131 0 11.1 4.97 11.1 11.1v2.002c.001 6.13-4.969 11.1-11.1 11.1z"/><path d="m293.861 315.844h-22.98c-6.131 0-11.1-4.97-11.1-11.1v-2.002c0-6.131 4.97-11.1 11.1-11.1h22.98c6.131 0 11.1 4.97 11.1 11.1v2.002c0 6.13-4.969 11.1-11.1 11.1z"/><path d="m360.845 315.844h-22.98c-6.131 0-11.1-4.97-11.1-11.1v-2.002c0-6.131 4.97-11.1 11.1-11.1h22.98c6.131 0 11.1 4.97 11.1 11.1v2.002c0 6.13-4.97 11.1-11.1 11.1z"/><path d="m427.828 315.844h-22.98c-6.131 0-11.1-4.97-11.1-11.1v-2.002c0-6.131 4.97-11.1 11.1-11.1h22.98c6.131 0 11.1 4.97 11.1 11.1v2.002c.001 6.13-4.969 11.1-11.1 11.1z"/><path d="m126.316 355.701h-22.98c-6.131 0-11.1-4.97-11.1-11.1v-2.002c0-6.131 4.97-11.1 11.1-11.1h22.98c6.131 0 11.1 4.97 11.1 11.1v2.002c0 6.131-4.97 11.1-11.1 11.1z"/><path d="m193.3 355.701h-22.98c-6.131 0-11.1-4.97-11.1-11.1v-2.002c0-6.131 4.97-11.1 11.1-11.1h22.98c6.131 0 11.1 4.97 11.1 11.1v2.002c0 6.131-4.97 11.1-11.1 11.1z"/><path d="m260.283 355.701h-22.98c-6.131 0-11.1-4.97-11.1-11.1v-2.002c0-6.131 4.97-11.1 11.1-11.1h22.98c6.131 0 11.1 4.97 11.1 11.1v2.002c.001 6.131-4.969 11.1-11.1 11.1z"/><path d="m327.267 355.701h-22.98c-6.131 0-11.1-4.97-11.1-11.1v-2.002c0-6.131 4.97-11.1 11.1-11.1h22.98c6.131 0 11.1 4.97 11.1 11.1v2.002c0 6.131-4.97 11.1-11.1 11.1z"/><path d="m394.251 355.701h-22.98c-6.131 0-11.1-4.97-11.1-11.1v-2.002c0-6.131 4.97-11.1 11.1-11.1h22.98c6.131 0 11.1 4.97 11.1 11.1v2.002c0 6.131-4.97 11.1-11.1 11.1z"/><path d="m461.32 355.701h-22.98c-6.131 0-11.1-4.97-11.1-11.1v-2.002c0-6.131 4.97-11.1 11.1-11.1h22.98c6.131 0 11.1 4.97 11.1 11.1v2.002c.001 6.131-4.969 11.1-11.1 11.1z"/></g><path d="m159.512 291.642h-14.412c6.342 0 11.482 5.141 11.482 11.482v1.238c0 6.342-5.141 11.482-11.482 11.482h14.411c6.342 0 11.482-5.141 11.482-11.482v-1.238c.001-6.342-5.14-11.482-11.481-11.482z" fill="#8f818f"/><path d="m226.495 291.642h-14.411c6.342 0 11.482 5.141 11.482 11.482v1.238c0 6.342-5.141 11.482-11.482 11.482h14.411c6.342 0 11.482-5.141 11.482-11.482v-1.238c.001-6.342-5.14-11.482-11.482-11.482z" fill="#8f818f"/><path d="m293.479 291.642h-14.411c6.342 0 11.482 5.141 11.482 11.482v1.238c0 6.342-5.141 11.482-11.482 11.482h14.411c6.342 0 11.482-5.141 11.482-11.482v-1.238c0-6.342-5.141-11.482-11.482-11.482z" fill="#8f818f"/><path d="m360.463 291.642h-14.411c6.342 0 11.482 5.141 11.482 11.482v1.238c0 6.342-5.141 11.482-11.482 11.482h14.411c6.342 0 11.482-5.141 11.482-11.482v-1.238c0-6.342-5.141-11.482-11.482-11.482z" fill="#8f818f"/><path d="m427.446 291.642h-14.411c6.342 0 11.482 5.141 11.482 11.482v1.238c0 6.342-5.141 11.482-11.482 11.482h14.411c6.342 0 11.482-5.141 11.482-11.482v-1.238c.001-6.342-5.14-11.482-11.482-11.482z" fill="#8f818f"/><path d="m125.934 331.499h-14.411c6.342 0 11.482 5.141 11.482 11.482v1.238c0 6.342-5.141 11.482-11.482 11.482h14.411c6.342 0 11.482-5.141 11.482-11.482v-1.238c0-6.341-5.141-11.482-11.482-11.482z" fill="#8f818f"/><path d="m192.917 331.499h-14.411c6.342 0 11.482 5.141 11.482 11.482v1.238c0 6.342-5.141 11.482-11.482 11.482h14.411c6.342 0 11.482-5.141 11.482-11.482v-1.238c.001-6.341-5.14-11.482-11.482-11.482z" fill="#8f818f"/><path d="m259.901 331.499h-14.411c6.342 0 11.482 5.141 11.482 11.482v1.238c0 6.342-5.141 11.482-11.482 11.482h14.411c6.342 0 11.482-5.141 11.482-11.482v-1.238c.001-6.341-5.14-11.482-11.482-11.482z" fill="#8f818f"/><path d="m326.885 331.499h-14.411c6.342 0 11.482 5.141 11.482 11.482v1.238c0 6.342-5.141 11.482-11.482 11.482h14.411c6.342 0 11.482-5.141 11.482-11.482v-1.238c0-6.341-5.141-11.482-11.482-11.482z" fill="#8f818f"/><path d="m393.868 331.499h-14.411c6.342 0 11.482 5.141 11.482 11.482v1.238c0 6.342-5.141 11.482-11.482 11.482h14.411c6.342 0 11.482-5.141 11.482-11.482v-1.238c.001-6.341-5.14-11.482-11.482-11.482z" fill="#8f818f"/><path d="m460.938 331.499h-14.411c6.342 0 11.482 5.141 11.482 11.482v1.238c0 6.342-5.141 11.482-11.482 11.482h14.411c6.342 0 11.482-5.141 11.482-11.482v-1.238c.001-6.341-5.14-11.482-11.482-11.482z" fill="#8f818f"/><path d="m282.372 134.416h-71.952c-4.285 0-7.758-3.473-7.758-7.758s3.473-7.758 7.758-7.758h71.951c4.285 0 7.758 3.473 7.758 7.758.001 4.285-3.472 7.758-7.757 7.758z" fill="#c8c1c9"/><path d="m353.383 168.21h-142.963c-4.285 0-7.758-3.473-7.758-7.758s3.473-7.758 7.758-7.758h142.963c4.285 0 7.758 3.473 7.758 7.758s-3.473 7.758-7.758 7.758z" fill="#c8c1c9"/></svg>